# xmcd CD database file
#
# Track frame offsets:
#	150
#	15842
#	28790
#	41220
#	64000
#	77177
#	86190
#	99502
#	115072
#	132195
#	147427
#	158510
#
# Disc length: 2291 seconds
#
# Revision: 1
# Processed by: cddbd v1.5.2PL0 Copyright (c) Steve Scherf et al.
# Submitted via: CDex 1.51
#
DISCID=9608f10c
DTITLE=Charlie McCoy - Out On A Limb
DYEAR=1991
DGENRE=
TTITLE0=Whiskey Before Breakfast
TTITLE1=You Don't Know Me
TTITLE2=I Hope It Ain't A Train
TTITLE3=Cayman Moon
TTITLE4=You've Still Got A Place In My Heart
TTITLE5=Out On A Limb
TTITLE6=Smokey Places
TTITLE7=The Other Woman
TTITLE8=Dutch Treat
TTITLE9=Lasso The Moon
TTITLE10=Saved By The Belle
TTITLE11=Julia
EXTD=YEAR: 1991
EXTT0=
EXTT1=
EXTT2=
EXTT3=
EXTT4=
EXTT5=
EXTT6=
EXTT7=
EXTT8=
EXTT9=
EXTT10=
EXTT11=
PLAYORDER=
